<?xml version="1.0" encoding="UTF-8"?>
<!DOCTYPE svg PUBLIC "-//W3C//DTD SVG 1.1//EN" "http://www.w3.org/Graphics/SVG/1.1/DTD/svg11.dtd">
<!-- Creator: CorelDRAW 2020 (64-Bit) -->
<svg xmlns="http://www.w3.org/2000/svg" xml:space="preserve" width="162.262mm" height="37.6712mm" version="1.1" style="shape-rendering:geometricPrecision; text-rendering:geometricPrecision; image-rendering:optimizeQuality; fill-rule:evenodd; clip-rule:evenodd"
viewBox="0 0 17973.06 4172.68"
 xmlns:xlink="http://www.w3.org/1999/xlink"
 xmlns:xodm="http://www.corel.com/coreldraw/odm/2003">
 <defs>
  <style type="text/css">
   <![CDATA[
    .str0 {stroke:#332C2B;stroke-width:55.38;stroke-miterlimit:22.9256}
    .fil0 {fill:#FEFEFE}
    .fil1 {fill:#332C2B}
    .fil2 {fill:#0B787A}
    .fil6 {fill:#34A853}
    .fil3 {fill:#4285F4}
    .fil5 {fill:#FBBC05}
    .fil4 {fill:#FEFEFE;fill-rule:nonzero}
    .fil7 {fill:#332C2B;fill-rule:nonzero}
    .fil8 {fill:#332C2B;fill-rule:nonzero}
   ]]>
  </style>
 </defs>
 <g id="Layer_x0020_1">
  <metadata id="CorelCorpID_0Corel-Layer"/>
  <rect class="fil0" x="-0" y="0" width="17973.07" height="4144.99"/>
  <g id="_1133412048">
   <rect class="fil1" x="2006.91" y="2992.24" width="4080.68" height="937.84" rx="106.2" ry="102.57"/>
   <rect class="fil0" x="2413.01" y="3390.31" width="173.39" height="134.19" rx="56.99" ry="56.99"/>
   <rect class="fil0" x="2678.38" y="3390.31" width="173.39" height="134.19" rx="56.99" ry="56.99"/>
   <rect class="fil0" x="2943.76" y="3390.31" width="173.39" height="134.19" rx="56.99" ry="56.99"/>
   <rect class="fil0" x="3209.13" y="3390.31" width="173.39" height="134.19" rx="56.99" ry="56.99"/>
   <rect class="fil0" x="3474.51" y="3390.31" width="173.39" height="134.19" rx="56.99" ry="56.99"/>
   <rect class="fil1" x="2922.68" y="3997.94" width="416.14" height="125.14"/>
   <rect class="fil1" x="4897.86" y="3997.94" width="416.14" height="125.14"/>
  </g>
  <g id="_1133415024">
   <path class="fil2" d="M2062.68 1314.91c284.16,-284.69 677.02,-460.82 1111.02,-460.82 436.76,0 831.86,178.38 1116.42,466.23l150.69 -149.42c-326.24,-320.57 -773.58,-518.31 -1267.1,-518.31 -490.77,0 -935.87,195.55 -1261.63,512.97l150.61 149.35z"/>
   <path class="fil2" d="M4174.5 1434.98c-255.95,-256.47 -609.84,-415.14 -1000.8,-415.14 -388.2,0 -739.87,156.46 -995.37,409.74l145.36 144.14c221.75,-209.48 520.89,-337.92 850.02,-337.92 331.89,0 633.27,130.59 855.57,343.2l145.24 -144.02z"/>
   <path class="fil3" d="M3887.2 1719.88c-185.47,-177.14 -436.77,-285.92 -713.5,-285.92 -273.96,0 -523.02,106.63 -707.94,280.66l152.73 151.46c145.54,-135.49 340.69,-218.37 555.2,-218.37 217.27,0 414.68,85.02 560.78,223.6l152.71 -151.43z"/>
   <circle class="fil3" cx="3179.5" cy="2289.18" r="430.35"/>
   <path class="fil4" d="M3203.99 2374.26c-10.07,11.66 -21.32,21.01 -33.85,28.07 -12.45,7.06 -24.98,10.54 -37.51,10.54 -13.8,0 -27.19,-4.04 -40.29,-12.05 -12.99,-8.09 -23.54,-20.46 -31.71,-37.18 -8.16,-16.73 -12.21,-35.12 -12.21,-55.11 0,-24.66 6.34,-49.32 18.95,-74.06 12.61,-24.66 28.3,-43.21 47.01,-55.66 18.72,-12.37 36.95,-18.54 54.55,-18.54 13.48,0 26.33,3.48 38.62,10.54 12.21,7.04 22.75,17.83 31.56,32.19l8.15 -36.08 41.39 0 -33.46 156.04c-4.67,21.72 -6.98,33.69 -6.98,36 0,4.2 1.6,7.84 4.76,10.86 3.17,3.01 7.06,4.52 11.5,4.52 8.24,0 19.02,-4.67 32.34,-14.11 17.69,-12.36 31.71,-28.94 42.02,-49.79 10.31,-20.78 15.46,-42.18 15.46,-64.3 0,-25.85 -6.67,-49.96 -19.9,-72.32 -13.24,-22.43 -33.06,-40.35 -59.38,-53.83 -26.24,-13.4 -55.35,-20.14 -87.14,-20.14 -36.32,0 -69.54,8.48 -99.51,25.37 -30.04,16.97 -53.36,41.23 -69.85,72.87 -16.56,31.63 -24.81,65.57 -24.81,101.8 0,37.89 8.25,70.48 24.73,97.84 16.57,27.44 40.44,47.65 71.68,60.73 31.25,13.08 65.82,19.58 103.79,19.58 40.67,0 74.69,-6.81 102.13,-20.54 27.43,-13.64 47.96,-30.28 61.61,-49.87l41.86 0c-7.93,16.25 -21.49,32.91 -40.67,49.79 -19.18,16.88 -42.02,30.28 -68.51,40.12 -26.47,9.84 -58.43,14.75 -95.7,14.75 -34.4,0 -66.13,-4.45 -95.14,-13.25 -29.1,-8.79 -53.84,-22.04 -74.3,-39.72 -20.45,-17.77 -35.83,-38.14 -46.21,-61.13 -13.01,-29.26 -19.51,-60.81 -19.51,-94.67 0,-37.66 7.76,-73.66 23.23,-107.83 18.95,-41.87 45.82,-73.98 80.64,-96.26 34.8,-22.27 76.98,-33.38 126.62,-33.38 38.46,0 73.03,7.85 103.63,23.56 30.6,15.7 54.78,39.09 72.39,70.16 15.06,26.72 22.6,55.83 22.6,87.22 0,44.88 -15.77,84.68 -47.33,119.48 -28.23,31.25 -58.99,46.86 -92.45,46.86 -10.71,0 -19.27,-1.66 -25.85,-4.92 -6.58,-3.25 -11.42,-7.93 -14.51,-14.03 -2.06,-3.89 -3.49,-10.62 -4.44,-20.14zm-112.75 -62.79c0,21.24 5.07,37.74 15.14,49.48 10.08,11.81 21.58,17.68 34.65,17.68 8.65,0 17.77,-2.63 27.44,-7.78 9.59,-5.23 18.8,-12.93 27.51,-23.15 8.81,-10.22 15.94,-23.23 21.49,-38.93 5.63,-15.7 8.41,-31.48 8.41,-47.33 0,-21.01 -5.24,-37.43 -15.7,-49 -10.47,-11.65 -23.24,-17.45 -38.23,-17.45 -9.91,0 -19.26,2.55 -28.07,7.54 -8.72,5.06 -17.2,13.16 -25.44,24.34 -8.17,11.1 -14.83,24.66 -19.75,40.67 -4.98,15.94 -7.45,30.6 -7.45,43.93z"/>
   <path class="fil5" d="M4440.82 1170.9c-325.65,-319.98 -771.94,-517.57 -1264.38,-518.31l0 201.49c435.66,0.74 829.71,178.98 1113.68,466.23l150.7 -149.42z"/>
   <path class="fil6" d="M4174.5 1434.98c-255.36,-255.87 -608.19,-414.4 -998.07,-415.14l0 215.96c330.81,0.71 631.15,131.18 852.84,343.2l145.22 -144.02z"/>
  </g>
  <g id="_1133376192">
   <polygon class="fil0 str0" points="7852.59,3089.33 16060.99,3089.33 16060.99,4144.99 7852.59,4144.99 "/>
   <polygon class="fil1" points="7852.59,3111.23 11952.01,3111.23 11952.01,4123.1 7852.59,4123.1 "/>
   <g>
    <path class="fil4" d="M8220.33 3310.07c14.03,0 25.73,0.59 35.09,1.75 9.35,1.17 17.56,3.64 24.57,7.45 7.02,3.81 13.75,9.07 20.18,15.81 6.44,6.72 13.73,15.64 21.94,26.76l326.39 428.18c2.35,4.11 6.16,6.16 11.41,6.16l7.91 0c4.67,0 7.01,-2.94 7.01,-8.78l0 -458.03c0,-12.86 6.44,-19.3 19.3,-19.3l92.15 0c12.87,0 19.3,6.44 19.3,19.3l0 503.65c0,35.68 -6.42,59.81 -19.3,72.39 -12.88,12.57 -32.75,18.87 -59.67,18.87l-75.45 0c-13.46,0 -24.72,-0.59 -33.79,-1.75 -9.06,-1.19 -17.11,-3.51 -24.12,-7.02 -7.02,-3.51 -13.9,-8.64 -20.62,-15.36 -6.71,-6.73 -14.48,-15.94 -23.24,-27.64l-327.3 -428.2c-3.51,-4.09 -7.3,-6.14 -11.4,-6.14l-7.9 0c-4.69,0 -7.02,2.92 -7.02,8.78l0 458.03c0,12.86 -6.44,19.3 -19.31,19.3l-92.12 0c-13.46,0 -20.19,-6.44 -20.19,-19.3l0 -503.65c0,-35.7 6.44,-59.82 19.32,-72.41 12.87,-12.57 32.75,-18.85 59.66,-18.85l77.23 0z"/>
    <path class="fil4" d="M9547.03 3310.07c13.45,0 20.17,6.44 20.17,19.3l0 83.35c0,12.88 -6.72,19.32 -20.17,19.32l-383.46 0c-22.81,0 -41.67,1.91 -56.58,5.69 -14.92,3.81 -26.92,10.25 -35.98,19.32 -9.07,9.06 -15.36,21.34 -18.87,36.84 -3.51,15.51 -5.26,34.66 -5.26,57.48l0 8.77 495.75 0c12.87,0 19.3,6.44 19.3,19.31l0 69.32c0,12.86 -6.42,19.3 -19.3,19.3l-495.75 0 0 14.92c0,22.81 1.75,41.98 5.26,57.49 3.51,15.49 9.8,27.78 18.87,36.84 9.06,9.06 21.06,15.51 35.98,19.32 14.91,3.79 33.77,5.69 56.58,5.69l383.46 0c13.45,0 20.17,6.44 20.17,19.3l0 83.37c0,12.86 -6.72,19.3 -20.17,19.3l-386.08 0c-44.45,0 -82.19,-4.1 -113.18,-12.28 -31,-8.2 -56.31,-21.5 -75.91,-39.93 -19.59,-18.42 -33.92,-42.41 -42.99,-71.94 -9.08,-29.54 -13.61,-65.37 -13.61,-107.5l0 -150.92c0,-42.11 4.53,-77.8 13.61,-107.04 9.07,-29.24 23.39,-53.09 42.99,-71.5 19.59,-18.43 44.9,-31.89 75.91,-40.37 30.99,-8.48 68.73,-12.72 113.18,-12.72l386.08 0z"/>
    <path class="fil4" d="M10335.84 3310.07c13.46,0 20.19,6.44 20.19,19.3l0 86c0,13.45 -6.73,20.18 -20.19,20.18l-275.51 0 0 469.44c0,12.86 -6.45,19.3 -19.31,19.3l-95.65 0c-12.87,0 -19.3,-6.44 -19.3,-19.3l0 -469.44 -275.53 0c-13.44,0 -20.17,-6.73 -20.17,-20.18l0 -86c0,-12.86 6.73,-19.3 20.17,-19.3l685.29 0z"/>
    <path class="fil4" d="M10520.11 3310.07c5.85,0 9.95,3.8 12.28,11.4l142.16 472.06c0.58,4.11 2.9,6.16 7.01,6.16l4.38 0c3.51,0 5.86,-2.05 7.02,-6.16l142.16 -432.57c6.44,-19.89 14.91,-33.34 25.43,-40.35 10.53,-7.02 23.7,-10.53 39.49,-10.53l86.86 0c19.32,0 34.08,3.8 44.33,11.4 10.22,7.62 18.58,20.77 24.99,39.49l145.67 432.57c1.16,4.11 3.51,6.16 7.02,6.16l5.25 0c3.51,0 5.86,-2.05 7.02,-6.16l138.65 -472.06c1.16,-4.67 3.07,-7.74 5.7,-9.2 2.63,-1.47 5.41,-2.19 8.34,-2.19l118.45 0c4.67,0 7.45,2.05 8.32,6.14 0.89,4.1 0.44,8.77 -1.31,14.05l-168.46 527.33c-8.19,26.33 -17.26,44.03 -27.2,53.09 -9.95,9.06 -23.4,13.6 -40.36,13.6l-102.66 0c-16.97,0 -30.28,-4.67 -39.93,-14.05 -9.65,-9.36 -18.86,-26.92 -27.64,-52.65l-137.76 -416.79c-0.59,-4.09 -2.91,-6.14 -7.02,-6.14l-3.51 0c-4.09,0 -6.42,2.05 -7.02,6.14l-139.51 416.79c-8.76,25.73 -17.99,43.29 -27.64,52.65 -9.65,9.37 -22.96,14.05 -39.92,14.05l-100.03 0c-9.95,0 -18.58,-0.89 -25.87,-2.64 -7.32,-1.76 -13.9,-5.11 -19.75,-10.08 -5.84,-4.97 -10.98,-11.85 -15.35,-20.62 -4.39,-8.78 -8.64,-19.89 -12.73,-33.35l-161.45 -527.33c-1.75,-5.86 -2.19,-10.68 -1.31,-14.49 0.88,-3.8 3.66,-5.69 8.33,-5.69l117.58 0z"/>
    <path class="fil4" d="M12087.22 3310.07c44.45,0 82.33,4.23 113.62,12.72 31.29,8.48 56.73,21.94 76.33,40.37 19.61,18.41 33.79,42.26 42.57,71.5 8.78,29.24 13.16,64.93 13.16,107.04l0 150.92c0,42.12 -4.38,77.96 -13.16,107.5 -8.77,29.53 -22.96,53.52 -42.57,71.94 -19.59,18.43 -45.04,31.73 -76.33,39.93 -31.29,8.19 -69.17,12.28 -113.62,12.28l-271.13 0c-44.45,0 -82.19,-4.1 -113.18,-12.28 -31.01,-8.2 -56.31,-21.5 -75.91,-39.93 -19.61,-18.42 -33.93,-42.41 -42.99,-71.94 -9.08,-29.54 -13.61,-65.37 -13.61,-107.5l0 -150.92c0,-42.11 4.53,-77.8 13.61,-107.04 9.06,-29.24 23.38,-53.09 42.99,-71.5 19.59,-18.43 44.89,-31.89 75.91,-40.37 30.99,-8.48 68.73,-12.72 113.18,-12.72l271.13 0zm-382.57 372.9c0,22.81 1.91,41.98 5.7,57.49 3.81,15.49 10.1,27.78 18.87,36.84 8.77,9.06 20.61,15.51 35.53,19.32 14.92,3.79 33.77,5.69 56.6,5.69l260.59 0c22.83,0 41.68,-1.91 56.6,-5.69 14.92,-3.81 26.75,-10.26 35.53,-19.32 8.77,-9.06 15.06,-21.36 18.86,-36.84 3.8,-15.51 5.7,-34.68 5.7,-57.49l0 -131.61c0,-22.82 -1.91,-41.97 -5.7,-57.48 -3.8,-15.5 -10.09,-27.78 -18.86,-36.84 -8.78,-9.07 -20.61,-15.51 -35.53,-19.32 -14.92,-3.79 -33.77,-5.69 -56.6,-5.69l-260.59 0c-22.83,0 -41.68,1.91 -56.6,5.69 -14.92,3.81 -26.76,10.25 -35.53,19.32 -8.77,9.06 -15.06,21.34 -18.87,36.84 -3.8,15.51 -5.7,34.66 -5.7,57.48l0 131.61z"/>
    <path class="fil7" d="M12939.21 3310.07c67.27,0 115.53,15.21 144.78,45.62 29.25,30.42 43.87,75.45 43.87,135.12l0 50.02c0,50.3 -10.23,90.07 -30.72,119.33 -20.47,29.25 -53.81,47.96 -100.02,56.15l150.04 186.02c2.91,2.92 3.8,7.32 2.63,13.17 -1.16,5.84 -5.85,8.77 -14.03,8.77l-113.19 0c-7.61,0 -12.86,-0.89 -15.8,-2.64 -2.92,-1.76 -5.85,-4.69 -8.77,-8.77l-138.63 -182.52 -283.42 0 0 174.63c0,12.86 -6.44,19.3 -19.3,19.3l-94.76 0c-13.46,0 -20.2,-6.44 -20.2,-19.3l0 -568.59c0,-17.55 8.78,-26.32 26.34,-26.32l471.18 0zm-363.26 313.25l336.06 0c29.83,0 50.89,-6.45 63.18,-19.31 12.27,-12.87 18.42,-32.47 18.42,-58.79l0 -36.85c0,-26.31 -6.15,-45.92 -18.42,-58.78 -12.29,-12.87 -33.35,-19.31 -63.18,-19.31l-324.65 0c-7.6,0 -11.41,3.51 -11.41,10.52l0 182.52z"/>
    <path class="fil7" d="M13350.74 3310.07c12.85,0 19.3,6.44 19.3,19.3l0 233.39 123.73 0c14.03,0 25.73,-0.42 35.09,-1.31 9.35,-0.88 17.56,-2.78 24.57,-5.72 7.02,-2.9 13.45,-7.01 19.3,-12.27 5.86,-5.27 12,-12 18.43,-20.17l150.93 -201.83c2.91,-4.1 5.84,-7.02 8.76,-8.77 2.92,-1.76 8.48,-2.63 16.67,-2.63l108.81 0c7.6,0 12.13,2.49 13.6,7.47 1.46,4.95 0.73,9.5 -2.19,13.59l-170.21 220.24c-9.95,13.45 -19.17,24.86 -27.65,34.23 -8.47,9.36 -16.83,17.55 -25,24.57 22.81,14.03 45.03,35.09 66.68,63.17l179.87 228.14c2.34,2.91 3.22,7.44 2.63,13.59 -0.59,6.15 -5.26,9.22 -14.05,9.22l-112.29 0c-7.62,0 -12.87,-0.89 -15.81,-2.64 -2.92,-1.76 -5.85,-4.69 -8.76,-8.77l-161.45 -208.83c-11.71,-15.21 -24.29,-25.6 -37.73,-31.15 -13.46,-5.56 -33.64,-8.35 -60.54,-8.35l-133.37 0 0 240.44c0,12.86 -6.45,19.3 -19.3,19.3l-94.77 0c-13.46,0 -20.19,-6.44 -20.19,-19.3l0 -575.62c0,-12.86 6.73,-19.3 20.19,-19.3l94.77 0z"/>
    <path class="fil7" d="M14100.07 3310.07c12.86,0 19.3,6.44 19.3,19.3l0 575.62c0,12.86 -6.44,19.3 -19.3,19.3l-94.76 0c-13.46,0 -20.19,-6.44 -20.19,-19.3l0 -575.62c0,-12.86 6.73,-19.3 20.19,-19.3l94.76 0z"/>
    <path class="fil7" d="M14392.26 3310.07c14.03,0 25.73,0.59 35.09,1.75 9.35,1.17 17.56,3.64 24.57,7.45 7.02,3.81 13.75,9.07 20.18,15.81 6.44,6.72 13.73,15.64 21.94,26.76l326.39 428.18c2.35,4.11 6.16,6.16 11.41,6.16l7.91 0c4.67,0 7.01,-2.94 7.01,-8.78l0 -458.03c0,-12.86 6.45,-19.3 19.3,-19.3l92.15 0c12.87,0 19.3,6.44 19.3,19.3l0 503.65c0,35.68 -6.42,59.81 -19.3,72.39 -12.88,12.57 -32.75,18.87 -59.67,18.87l-75.45 0c-13.46,0 -24.72,-0.59 -33.79,-1.75 -9.06,-1.19 -17.1,-3.51 -24.12,-7.02 -7.02,-3.51 -13.9,-8.64 -20.62,-15.36 -6.71,-6.73 -14.48,-15.94 -23.24,-27.64l-327.3 -428.2c-3.51,-4.09 -7.3,-6.14 -11.39,-6.14l-7.91 0c-4.69,0 -7.01,2.92 -7.01,8.78l0 458.03c0,12.86 -6.45,19.3 -19.32,19.3l-92.12 0c-13.46,0 -20.19,-6.44 -20.19,-19.3l0 -503.65c0,-35.7 6.44,-59.82 19.32,-72.41 12.87,-12.57 32.75,-18.85 59.66,-18.85l77.23 0z"/>
    <path class="fil7" d="M15777.74 3310.07c12.87,0 19.3,6.44 19.3,19.3l0 86c0,13.45 -6.42,20.18 -19.3,20.18l-439.6 0c-22.82,0 -41.68,1.91 -56.6,5.69 -14.92,3.81 -26.75,10.25 -35.53,19.32 -8.77,9.06 -15.06,21.2 -18.87,36.4 -3.79,15.22 -5.69,34.51 -5.69,57.92l0 126.36c0,23.38 1.91,42.83 5.69,58.34 3.81,15.51 10.1,27.78 18.87,36.84 8.78,9.07 20.61,15.51 35.53,19.32 14.92,3.79 33.78,5.69 56.6,5.69l289.55 0c15.21,0 26.32,-3.94 33.34,-11.83 7.01,-7.91 10.52,-21.8 10.52,-41.69l0 -71.07c0,-7.6 -3.51,-11.41 -10.52,-11.41l-257.09 0c-12.87,0 -19.32,-6.72 -19.32,-20.18l0 -65.81c0,-13.45 6.45,-20.19 19.32,-20.19l365.88 0c17.56,0 26.34,8.78 26.34,26.34l0 204.43c0,49.14 -9.37,83.79 -28.08,103.99 -18.73,20.18 -45.64,30.27 -80.73,30.27l-354.49 0c-44.45,0 -82.19,-4.1 -113.18,-12.28 -31,-8.2 -56.31,-21.5 -75.91,-39.93 -19.59,-18.42 -33.92,-42.41 -42.99,-71.94 -9.08,-29.54 -13.61,-65.37 -13.61,-107.5l0 -150.92c0,-42.11 4.53,-77.8 13.61,-107.04 9.07,-29.24 23.39,-53.09 42.99,-71.5 19.59,-18.43 44.9,-31.89 75.91,-40.37 30.99,-8.48 68.73,-12.72 113.18,-12.72l444.87 0z"/>
    <path class="fil1" d="M12087.22 3310.07l-135.58 0 0 121.96 130.3 0c22.83,0 41.68,1.91 56.6,5.69 14.92,3.81 26.75,10.25 35.53,19.32 8.77,9.06 15.06,21.34 18.86,36.84 3.8,15.51 5.7,34.66 5.7,57.48l0 131.61c0,22.81 -1.91,41.98 -5.7,57.49 -3.8,15.49 -10.09,27.78 -18.86,36.84 -8.78,9.06 -20.61,15.51 -35.53,19.32 -14.92,3.79 -33.77,5.69 -56.6,5.69l-130.3 0 0 121.96 135.58 0c44.45,0 82.33,-4.1 113.62,-12.28 31.29,-8.2 56.73,-21.5 76.33,-39.93 19.61,-18.42 33.79,-42.41 42.57,-71.94 8.78,-29.54 13.16,-65.37 13.16,-107.5l0 -150.92c0,-42.11 -4.38,-77.8 -13.16,-107.04 -8.77,-29.24 -22.96,-53.09 -42.57,-71.5 -19.59,-18.43 -45.04,-31.89 -76.33,-40.37 -31.29,-8.48 -69.17,-12.72 -113.62,-12.72z"/>
   </g>
  </g>
  <path class="fil8" d="M5637.81 1440.3c23.18,0 34.78,11.09 34.78,33.27l0 143.7c0,22.19 -11.6,33.27 -34.78,33.27l-660.99 0c-39.33,0 -71.85,3.28 -97.56,9.84 -25.72,6.55 -46.39,17.64 -62.02,33.27 -15.63,15.63 -26.47,36.81 -32.52,63.52 -6.05,26.73 -9.07,59.75 -9.07,99.08l0 15.12 854.6 0c22.19,0 33.27,11.1 33.27,33.27l0 119.49c0,22.19 -11.09,33.29 -33.27,33.29l-854.6 0 0 25.71c0,39.33 3.02,72.35 9.07,99.08 6.05,26.72 16.89,47.9 32.52,63.52 15.63,15.63 36.3,26.72 62.02,33.27 25.71,6.56 58.23,9.84 97.56,9.84l660.99 0c23.18,0 34.78,11.09 34.78,33.27l0 143.7c0,22.19 -11.6,33.27 -34.78,33.27l-665.54 0c-76.64,0 -141.68,-7.06 -195.12,-21.18 -53.44,-14.11 -97.05,-37.05 -130.84,-68.82 -33.78,-31.77 -58.48,-73.11 -74.11,-124.04 -15.63,-50.92 -23.45,-112.68 -23.45,-185.29l0 -260.16c0,-72.61 7.82,-134.12 23.45,-184.54 15.63,-50.42 40.33,-91.51 74.11,-123.28 33.78,-31.76 77.39,-54.95 130.84,-69.57 53.44,-14.62 118.49,-21.93 195.12,-21.93l665.54 0zm1046.7 228.4c36.3,0 62.77,7.81 79.41,23.44 16.64,15.63 24.96,39.59 24.96,71.85l0 111.93c0,16.14 -1.01,29.5 -3.02,40.09 -2.02,10.59 -5.55,19.92 -10.59,27.98 -5.04,8.06 -12.1,15.13 -21.18,21.18 -9.07,6.05 -20.16,12.1 -33.27,18.14l-671.58 294.96c-5.04,2.02 -8.32,4.79 -9.82,8.32 -1.52,3.53 -2.27,7.81 -2.27,12.86l0 10.59c0,7.06 4.53,10.58 13.61,10.58l703.34 0c18.15,0 27.23,9.08 27.23,27.23l0 124.04c0,18.15 -9.07,27.23 -27.23,27.23l-836.45 0c-36.31,0 -62.77,-7.57 -79.41,-22.68 -16.64,-15.13 -24.97,-38.82 -24.97,-71.09l0 -111.94c0,-31.26 4.54,-54.2 13.61,-68.82 9.08,-14.62 27.23,-27.98 54.45,-40.09l671.58 -294.95c8.07,-3.02 12.11,-9.58 12.11,-19.66l0 -10.59c0,-8.06 -4.54,-12.11 -13.61,-12.11l-703.35 0c-18.14,0 -27.23,-9.07 -27.23,-27.23l0 -124.02c0,-18.15 9.08,-27.23 27.23,-27.23l836.46 0zm937.8 0c67.56,0 124.53,5.79 170.92,17.39 46.38,11.6 83.44,29.75 111.18,54.45 27.72,24.71 47.64,56.47 59.75,95.29 12.1,38.82 18.14,85.47 18.14,139.92l0 402.35c0,24.19 -1.76,44.11 -5.29,59.74 -3.52,15.64 -9.58,27.99 -18.14,37.06 -8.57,9.07 -19.92,15.37 -34.04,18.91 -14.11,3.53 -32.27,5.29 -54.45,5.29l-719.99 0c-44.36,0 -81.42,-4.29 -111.16,-12.86 -29.75,-8.57 -53.7,-21.42 -71.85,-38.57 -18.15,-17.15 -31,-39.32 -38.57,-66.55 -7.57,-27.23 -11.34,-59.5 -11.34,-96.81l0 -72.61c0,-31.26 3.78,-59.24 11.34,-83.94 7.57,-24.71 20.41,-45.64 38.57,-62.78 18.15,-17.14 42.1,-30 71.85,-38.57 29.74,-8.57 66.8,-12.85 111.16,-12.85l615.62 0 0 -28.74c0,-24.2 -2.53,-44.87 -7.57,-62.02 -5.04,-17.14 -13.61,-31 -25.72,-41.59 -12.1,-10.59 -28.73,-18.41 -49.91,-23.45 -21.18,-5.04 -48.4,-7.57 -81.68,-7.57l-632.25 0c-18.15,0 -27.23,-9.07 -27.23,-27.23l0 -127.05c0,-18.15 9.07,-27.23 27.23,-27.23l653.43 0zm99.83 664.02c16.13,0 27.47,-3.79 34.03,-11.34 6.56,-7.57 9.84,-20.92 9.84,-40.09l0 -133.11 -553.61 0c-31.26,0 -53.19,6.3 -65.79,18.91 -12.61,12.61 -18.91,31 -18.91,55.21l0 31.77c0,27.23 6.3,47.14 18.91,59.75 12.61,12.61 34.54,18.91 65.79,18.91l509.74 0zm1790.88 -892.42c115.96,0 199.16,26.22 249.58,78.65 50.42,52.44 75.62,130.08 75.62,232.93l0 86.22c0,86.72 -17.64,155.29 -52.93,205.71 -35.29,50.42 -92.77,82.69 -172.43,96.8l258.65 320.67c5.04,5.04 6.55,12.61 4.53,22.68 -2.02,10.09 -10.08,15.13 -24.2,15.13l-195.11 0c-13.11,0 -22.19,-1.52 -27.23,-4.54 -5.04,-3.02 -10.09,-8.06 -15.13,-15.12l-238.99 -314.62 -488.55 0 0 301.01c0,22.19 -11.1,33.27 -33.27,33.27l-163.37 0c-23.18,0 -34.78,-11.09 -34.78,-33.27l0 -980.15c0,-30.25 15.12,-45.37 45.37,-45.37l812.26 0zm-626.2 539.98l579.32 0c51.43,0 87.73,-11.09 108.9,-33.27 21.18,-22.19 31.76,-55.97 31.76,-101.34l0 -63.54c0,-45.37 -10.58,-79.15 -31.76,-101.34 -21.18,-22.19 -57.48,-33.27 -108.9,-33.27l-559.65 0c-13.1,0 -19.66,6.05 -19.66,18.15l0 314.61zm1902.81 -311.58c51.43,0 94.03,4.29 127.81,12.85 33.78,8.57 60.5,22.7 80.16,42.36 19.67,19.66 33.53,45.38 41.6,77.14 8.06,31.77 12.1,70.34 12.1,115.72l0 143.7c0,32.27 -7.06,54.71 -21.18,67.31 -14.11,12.59 -35.79,18.9 -65.03,18.9l-763.85 0 0 36.31c0,47.4 11.34,81.68 34.03,102.86 22.7,21.17 66.8,31.76 132.35,31.76l630.74 0c18.14,0 27.23,9.08 27.23,27.23l0 127.06c0,18.15 -9.08,27.23 -27.23,27.23l-651.92 0c-68.56,0 -125.8,-5.55 -171.68,-16.64 -45.88,-11.1 -82.69,-28.99 -110.42,-53.7 -27.72,-24.7 -47.64,-56.47 -59.75,-95.29 -12.1,-38.82 -18.14,-85.46 -18.14,-139.91l0 -217.81c0,-54.45 6.05,-101.1 18.14,-139.92 12.11,-38.82 32.02,-70.58 59.75,-95.29 27.74,-24.7 64.54,-42.86 110.42,-54.45 45.88,-11.6 103.11,-17.39 171.68,-17.39l443.18 0zm-588.39 343.35l612.59 0c17.15,0 25.71,-8.57 25.71,-25.71l0 -63.54c0,-31.26 -6.55,-53.44 -19.66,-66.55 -13.1,-13.11 -37.31,-19.67 -72.61,-19.67l-379.65 0c-65.55,0 -109.66,10.35 -132.35,31.01 -22.68,20.67 -34.03,55.21 -34.03,103.61l0 40.84zm1211.57 -571.75c22.19,0 33.29,11.09 33.29,33.27l0 603.52c0,40.33 3.28,73.86 9.82,100.59 6.56,26.72 17.4,47.9 32.52,63.52 15.13,15.63 35.54,26.73 61.26,33.27 25.71,6.56 58.23,9.84 97.56,9.84l612.59 0c22.19,0 33.27,11.09 33.27,33.27l0 148.24c0,22.19 -11.09,33.27 -33.27,33.27l-621.67 0c-76.64,0 -141.67,-7.06 -195.11,-21.18 -53.44,-14.11 -97.06,-37.05 -130.85,-68.82 -33.77,-31.77 -58.48,-73.11 -74.11,-124.04 -15.63,-50.92 -23.44,-112.68 -23.44,-185.29l0 -626.2c0,-22.19 11.6,-33.27 34.78,-33.27l163.36 0zm1786.35 228.4c67.56,0 124.53,5.79 170.92,17.39 46.38,11.6 83.44,29.75 111.16,54.45 27.74,24.71 47.65,56.47 59.75,95.29 12.11,38.82 18.15,85.47 18.15,139.92l0 217.81c0,54.45 -6.05,101.08 -18.15,139.91 -12.1,38.82 -32.01,70.59 -59.75,95.29 -27.72,24.71 -64.79,42.6 -111.16,53.7 -46.39,11.09 -103.37,16.64 -170.92,16.64l-428.07 0c-68.56,0 -125.8,-5.55 -171.68,-16.64 -45.88,-11.1 -82.69,-28.99 -110.41,-53.7 -27.74,-24.7 -47.65,-56.47 -59.75,-95.29 -12.11,-38.82 -18.15,-85.46 -18.15,-139.91l0 -217.81c0,-54.45 6.05,-101.1 18.15,-139.92 12.1,-38.82 32.01,-70.58 59.75,-95.29 27.72,-24.7 64.53,-42.86 110.41,-54.45 45.88,-11.6 103.11,-17.39 171.68,-17.39l428.07 0zm-571.75 487.05c0,32.27 2.51,58.98 7.55,80.16 5.04,21.18 13.87,38.07 26.47,50.68 12.61,12.61 29.5,21.68 50.68,27.23 21.17,5.55 47.9,8.32 80.16,8.32l385.71 0c33.27,0 60.5,-2.77 81.68,-8.32 21.18,-5.55 38.07,-14.62 50.68,-27.23 12.61,-12.61 21.42,-29.5 26.46,-50.68 5.04,-21.18 7.57,-47.9 7.57,-80.16l0 -143.7c0,-31.26 -2.53,-57.48 -7.57,-78.65 -5.04,-21.18 -13.86,-38.31 -26.46,-51.43 -12.61,-13.1 -29.5,-22.19 -50.68,-27.23 -21.18,-5.04 -48.4,-7.57 -81.68,-7.57l-385.71 0c-32.27,0 -58.99,2.53 -80.16,7.57 -21.18,5.04 -38.07,14.12 -50.68,27.23 -12.61,13.11 -21.43,30.25 -26.47,51.43 -5.04,21.18 -7.55,47.4 -7.55,78.65l0 143.7zm1781.81 -487.05c67.56,0 124.53,5.79 170.92,17.39 46.38,11.6 83.44,29.75 111.18,54.45 27.72,24.71 47.64,56.47 59.75,95.29 12.1,38.82 18.14,85.47 18.14,139.92l0 402.35c0,24.19 -1.76,44.11 -5.29,59.74 -3.52,15.64 -9.58,27.99 -18.14,37.06 -8.57,9.07 -19.92,15.37 -34.04,18.91 -14.11,3.53 -32.27,5.29 -54.45,5.29l-719.99 0c-44.36,0 -81.42,-4.29 -111.16,-12.86 -29.75,-8.57 -53.7,-21.42 -71.85,-38.57 -18.15,-17.15 -31,-39.32 -38.57,-66.55 -7.57,-27.23 -11.34,-59.5 -11.34,-96.81l0 -72.61c0,-31.26 3.78,-59.24 11.34,-83.94 7.57,-24.71 20.41,-45.64 38.57,-62.78 18.15,-17.14 42.1,-30 71.85,-38.57 29.74,-8.57 66.8,-12.85 111.16,-12.85l615.62 0 0 -28.74c0,-24.2 -2.53,-44.87 -7.57,-62.02 -5.04,-17.14 -13.61,-31 -25.72,-41.59 -12.1,-10.59 -28.73,-18.41 -49.91,-23.45 -21.18,-5.04 -48.4,-7.57 -81.68,-7.57l-632.25 0c-18.15,0 -27.23,-9.07 -27.23,-27.23l0 -127.05c0,-18.15 9.07,-27.23 27.23,-27.23l653.43 0zm99.83 664.02c16.13,0 27.47,-3.79 34.03,-11.34 6.56,-7.57 9.84,-20.92 9.84,-40.09l0 -133.11 -553.61 0c-31.26,0 -53.19,6.3 -65.79,18.91 -12.61,12.61 -18.91,31 -18.91,55.21l0 31.77c0,27.23 6.3,47.14 18.91,59.75 12.61,12.61 34.54,18.91 65.79,18.91l509.74 0zm1337.11 -664.02l0 -270.76c0,-22.19 11.1,-33.27 33.29,-33.27l148.23 0c22.19,0 33.27,11.09 33.27,33.27l0 795.62c0,54.45 -6.05,101.08 -18.14,139.91 -12.11,38.82 -32.02,70.59 -59.75,95.29 -27.74,24.71 -64.79,42.6 -111.18,53.7 -46.39,11.09 -103.36,16.64 -170.92,16.64l-423.52 0c-68.56,0 -125.8,-5.55 -171.68,-16.64 -45.88,-11.1 -82.69,-28.99 -110.41,-53.7 -27.74,-24.7 -47.65,-56.47 -59.75,-95.29 -12.11,-38.82 -18.15,-85.46 -18.15,-139.91l0 -217.81c0,-54.45 6.05,-101.1 18.15,-139.92 12.1,-38.82 32.01,-70.58 59.75,-95.29 27.72,-24.7 64.53,-42.86 110.41,-54.45 45.88,-11.6 103.11,-17.39 171.68,-17.39l568.73 0zm-166.38 648.89c33.27,0 60.5,-2.77 81.68,-8.32 21.18,-5.54 38.07,-14.62 50.68,-27.23 12.61,-12.61 21.42,-29.5 26.47,-50.66 5.04,-21.18 7.55,-47.91 7.55,-80.17l0 -301.01 -547.55 0c-32.27,0 -58.99,2.78 -80.16,8.33 -21.18,5.54 -38.07,14.62 -50.68,27.23 -12.61,12.61 -21.43,29.74 -26.47,51.42 -5.04,21.69 -7.55,48.15 -7.55,79.42l0 134.61c0,32.27 2.51,58.99 7.55,80.17 5.04,21.17 13.87,38.06 26.47,50.66 12.61,12.61 29.5,21.69 50.68,27.23 21.17,5.55 47.9,8.32 80.16,8.32l381.17 0z"/>
 </g>
</svg>
